<svg width="127" height="122" viewBox="0 0 127 122" fill="none" xmlns="http://www.w3.org/2000/svg">
<path d="M63.5 28.5175L48.895 42.4458L66.4104 59.2717L60.8012 64.66L43.2858 47.8342L33.9195 56.8317L51.435 73.6575L45.8258 79.0458L28.3104 62.22L17.727 72.3867C16.0453 73.9515 14.9512 76.0079 14.6161 78.2339C14.2809 80.4599 14.7237 82.7299 15.875 84.6883L21.1666 94.2958L9.26038 105.937L16.7216 113.104L28.8395 101.667L38.8408 106.75C40.4537 107.628 42.2785 108.084 44.1325 108.072C45.529 108.073 46.9119 107.808 48.2016 107.294C49.4912 106.779 50.6621 106.024 51.6466 105.072L97.3137 61L63.5 28.5175Z" fill="#F3610E"/>
<path d="M104.775 46.7667L95.3029 37.6167L102.817 30.4492L110.278 37.6167L117.74 30.4492L95.3029 8.89584L87.8417 16.0633L95.3029 23.2817L87.8417 30.4492L78.3167 21.35L69.1092 12.4542L61.6479 19.6725L67.0984 24.9083V24.9592L101.018 57.5433H101.071L106.521 62.7792L114.035 55.6117L104.828 46.7667H104.775Z" fill="#F3610E"/>
</svg>
